<svg width="80" height="91" viewBox="0 0 80 91" fill="none" xmlns="http://www.w3.org/2000/svg">
<circle cx="40" cy="40" r="40" fill="#2460F9"/>
<circle cx="40" cy="40" r="40" fill="url(#paint0_linear)"/>
<path d="M54.875 37.375H44.25C43.9048 37.375 43.625 37.0952 43.625 36.75V26.125C43.625 24.3992 42.2258 23 40.5 23C38.7742 23 37.375 24.3992 37.375 26.125V36.75C37.375 37.0952 37.0952 37.375 36.75 37.375H26.125C24.3992 37.375 23 38.7742 23 40.5C23 42.2258 24.3992 43.625 26.125 43.625H36.75C37.0952 43.625 37.375 43.9048 37.375 44.25V54.875C37.375 56.6008 38.7742 58 40.5 58C42.2258 58 43.625 56.6008 43.625 54.875V44.25C43.625 43.9048 43.9048 43.625 44.25 43.625H54.875C56.6008 43.625 58 42.2258 58 40.5C58 38.7742 56.6008 37.375 54.875 37.375Z" fill="white"/>
<path d="M69.2087 72.1356H69.1574C68.1724 72.1356 67.3434 72.9316 67.3434 73.9547V75.3728C67.3434 75.6553 67.1022 75.8846 66.8051 75.8846C66.5077 75.8846 66.2668 75.6553 66.2668 75.3728V72.7543C66.2668 71.7312 65.4855 70.8989 64.5008 70.8989C63.5108 70.8989 62.7295 71.7312 62.7295 72.7543V75.5296C62.7295 75.8123 62.4883 76.0414 62.1912 76.0414C61.8938 76.0414 61.6529 75.8123 61.6529 75.5296V71.9922C61.6529 70.9694 60.8407 70.1614 59.856 70.1614H59.8014C58.8413 70.1614 58.0387 70.9277 58.0387 71.9151V75.8983C58.0387 76.1811 57.7975 76.4101 57.5004 76.4101C57.2031 76.4101 56.9621 76.1811 56.9621 75.8983V72.0305C56.9621 72.0179 56.9606 72.0048 56.9606 71.9919C56.9606 71.9605 56.9621 71.9291 56.9621 71.898V62.8551C56.9621 61.832 56.1502 61 55.1659 61C54.1812 61 53.3696 61.8317 53.3687 62.8539L53.3579 77.8497C53.3576 78.0659 53.2149 78.2587 53.0007 78.3315C52.7868 78.4043 52.5477 78.3415 52.4035 78.1744L50.5205 75.9949C50.0239 75.4033 49.291 75.0349 48.4971 74.9775C47.72 74.9287 46.9564 75.1891 46.3893 75.6967C46.3827 75.7024 46.3758 75.7092 46.3686 75.715L46 76.008L52.5288 87.9379C53.5594 89.821 55.5083 91 57.6143 91H65.1614C68.3731 91 70.9885 88.3132 70.9918 85.022C70.9936 83.2792 70.9954 81.972 70.9969 80.9189C71.0008 78.1038 71.002 77.0685 70.9945 73.9676C70.9921 72.9473 70.191 72.1356 69.2087 72.1356Z" fill="white"/>
<defs>
<linearGradient id="paint0_linear" x1="40" y1="0" x2="40" y2="80" gradientUnits="userSpaceOnUse">
<stop offset="0.109375" stop-color="#2460F9"/>
<stop offset="0.880208" stop-color="#2460F9"/>
</linearGradient>
</defs>
</svg>
