<svg width="75" height="75" viewBox="0 0 75 75" fill="none" xmlns="http://www.w3.org/2000/svg">
<g clip-path="url(#clip0)">
<path d="M37.5 75.0001C58.2107 75.0001 75.0001 58.2107 75.0001 37.5C75.0001 16.7893 58.2107 0 37.5 0C16.7893 0 0 16.7893 0 37.5C0 58.2107 16.7893 75.0001 37.5 75.0001Z" fill="#E24C4B"/>
<path d="M74.9995 37.5001C74.9995 58.1251 58.1245 75.0001 37.4995 75.0001C25.5464 75.0001 14.9995 69.6095 8.20258 60.9377C14.5307 66.094 22.7338 69.1408 31.64 69.1408C52.2651 69.1408 69.14 52.2659 69.14 31.6408C69.14 22.7346 66.0932 14.5315 60.9369 8.20337C69.6089 15 74.9995 25.5469 74.9995 37.5001Z" fill="#D1403F"/>
<path d="M54.6094 54.6095C53.2032 56.0157 50.8594 56.0157 49.4532 54.6095L37.5001 42.6564L25.547 54.6095C24.1408 56.0157 21.7969 56.0157 20.3907 54.6095C18.9845 53.2033 18.9845 50.8594 20.3907 49.4532L32.3438 37.5002L20.3907 25.5471C18.9845 24.1409 18.9845 21.797 20.3907 20.3908C21.7969 18.9846 24.1408 18.9846 25.547 20.3908L37.5001 32.3439L49.4532 20.3908C50.8594 18.9846 53.2032 18.9846 54.6094 20.3908C56.0156 21.797 56.0156 24.1409 54.6094 25.5471L42.6563 37.5002L54.6094 49.4532C56.0156 50.8594 56.0156 53.2032 54.6094 54.6095Z" fill="white"/>
</g>
<defs>
<clipPath id="clip0">
<rect width="75" height="75" fill="white"/>
</clipPath>
</defs>
</svg>
