<svg width="40" height="40" viewBox="0 0 40 40" fill="none" xmlns="http://www.w3.org/2000/svg">
<path d="M28.1432 9.46789C29.0062 9.46789 29.7057 8.76836 29.7057 7.90539V3.85766C29.7057 1.73055 27.956 0 25.8055 0H7.10336C4.95281 0 3.20312 1.73055 3.20312 3.85766V36.1423C3.20312 38.2695 4.95281 40 7.10336 40H25.8055C27.956 40 29.7057 38.2695 29.7057 36.1423V32.0946C29.7057 31.2317 29.0061 30.5322 28.1432 30.5322C27.2802 30.5322 26.5807 31.2317 26.5807 32.0947V36.1424C26.5807 36.5464 26.233 36.8751 25.8055 36.8751H7.10336C6.67586 36.8751 6.32812 36.5464 6.32812 36.1424V3.85766C6.32812 3.45367 6.67586 3.125 7.10336 3.125H25.8055C26.233 3.125 26.5807 3.45367 26.5807 3.85766V7.90539C26.5807 8.76836 27.2802 9.46789 28.1432 9.46789Z" fill="black"/>
<path d="M36.3253 18.8814L28.0095 10.7719C27.3917 10.1694 26.4024 10.1818 25.8 10.7997C25.1975 11.4174 25.21 12.4067 25.8278 13.0091L31.3942 18.4375H16.4544C15.5914 18.4375 14.8919 19.137 14.8919 20C14.8919 20.863 15.5914 21.5625 16.4544 21.5625H31.3942L25.8278 26.9908C25.21 27.5932 25.1975 28.5825 25.8 29.2002C26.4023 29.818 27.3917 29.8307 28.0095 29.228L36.3253 21.1185C36.9579 20.5028 36.9503 19.4898 36.3253 18.8814Z" fill="black"/>
</svg>
