<svg width="120" height="120" viewBox="0 0 120 120" fill="none" xmlns="http://www.w3.org/2000/svg">
<circle cx="60" cy="60" r="60" fill="#D91D1D"/>
<circle cx="60" cy="60" r="60" fill="url(#paint0_linear)"/>
<path d="M85.3595 36.7999H65.5626C62.8821 36.7999 60.4979 38.0976 59.0001 40.0998C57.5022 38.0976 55.1182 36.7999 52.4376 36.7999H32.6407C31.7347 36.7999 31.0001 37.5374 31.0001 38.447V84.5646C31.0001 85.4743 31.7347 86.2117 32.6407 86.2117H72.3506L73.5595 89.5461C74.0091 90.7864 74.913 91.7765 76.1045 92.3344C76.7662 92.6441 77.4727 92.7999 78.1817 92.7999C78.7492 92.7999 79.3187 92.7 79.868 92.4994C82.4031 91.573 83.7212 88.76 82.8248 86.2117H85.3595C86.2656 86.2117 87.0001 85.4743 87.0001 84.5646V38.447C87.0001 37.5374 86.2656 36.7999 85.3595 36.7999ZM65.5626 40.094H83.7189V76.3293H79.2434L77.7733 72.2744C81.0631 69.0588 82.3689 64.0824 80.6994 59.4773C80.6994 59.4773 80.6994 59.4773 80.6994 59.4772C79.6001 56.4456 77.3908 54.0251 74.4782 52.6615C71.5655 51.2981 68.2984 51.155 65.2788 52.2583C63.4878 52.9128 61.9109 53.9593 60.6409 55.3125V45.0352C60.6408 42.3107 62.8487 40.094 65.5626 40.094ZM60.6408 71.9037C61.671 72.9988 62.9083 73.8995 64.309 74.5552C65.6583 75.1868 67.0837 75.5557 68.5254 75.6609L68.7677 76.3293H65.5626C63.7176 76.3293 62.0126 76.9442 60.6408 77.9802V71.9037ZM65.6957 71.5697C63.5775 70.578 61.9706 68.8177 61.1713 66.6128C60.3719 64.4079 60.4757 62.0224 61.4635 59.8959C62.4512 57.7694 64.2046 56.1562 66.4011 55.3538C67.3856 54.9941 68.3934 54.8235 69.3851 54.8235C72.9602 54.8235 76.3241 57.0407 77.616 60.6039C79.2661 65.1555 76.9201 70.2062 72.3863 71.8629C70.19 72.6655 67.8138 72.5613 65.6957 71.5697ZM34.2814 40.094H52.4376C55.1515 40.094 57.3595 42.3107 57.3595 45.0352V77.9802C55.9876 76.9442 54.2827 76.3293 52.4376 76.3293H34.2814V40.094ZM34.2814 79.6235H52.4376C54.5765 79.6235 56.4001 81.0005 57.0773 82.9176H34.2814V79.6235ZM60.9229 82.9176C61.6002 81.0005 63.4238 79.6235 65.5626 79.6235H69.962L71.1563 82.9176H60.9229ZM78.7456 89.4038C78.3341 89.5544 77.8885 89.5347 77.4912 89.3489C77.094 89.1629 76.7927 88.8328 76.6429 88.4194L71.9287 75.4168C72.4605 75.3005 72.9882 75.1485 73.5084 74.9584C74.0313 74.7674 74.5326 74.5427 75.0118 74.2891L79.7263 87.2928C80.0357 88.1462 79.5958 89.0933 78.7456 89.4038ZM81.6319 82.9176L80.4376 79.6235H83.7189V82.9176H81.6319Z" fill="white"/>
<path d="M39.2032 46.6822H52.4376C53.3437 46.6822 54.0782 45.9447 54.0782 45.0351C54.0782 44.1255 53.3437 43.3881 52.4376 43.3881H39.2032C38.2972 43.3881 37.5626 44.1255 37.5626 45.0351C37.5626 45.9447 38.2972 46.6822 39.2032 46.6822Z" fill="white"/>
<path d="M39.2032 53.2704H52.4376C53.3437 53.2704 54.0782 52.533 54.0782 51.6234C54.0782 50.7138 53.3437 49.9763 52.4376 49.9763H39.2032C38.2972 49.9763 37.5626 50.7138 37.5626 51.6234C37.5626 52.533 38.2972 53.2704 39.2032 53.2704Z" fill="white"/>
<path d="M39.2032 59.8588H52.4376C53.3437 59.8588 54.0782 59.1214 54.0782 58.2118C54.0782 57.3021 53.3437 56.5647 52.4376 56.5647H39.2032C38.2972 56.5647 37.5626 57.3021 37.5626 58.2118C37.5626 59.1214 38.2972 59.8588 39.2032 59.8588Z" fill="white"/>
<path d="M39.2032 66.4471H52.4376C53.3437 66.4471 54.0782 65.7096 54.0782 64.8C54.0782 63.8904 53.3437 63.153 52.4376 63.153H39.2032C38.2972 63.153 37.5626 63.8904 37.5626 64.8C37.5626 65.7096 38.2972 66.4471 39.2032 66.4471Z" fill="white"/>
<path d="M54.0782 71.3881C54.0782 70.4785 53.3437 69.7411 52.4376 69.7411H39.2032C38.2972 69.7411 37.5626 70.4785 37.5626 71.3881C37.5626 72.2978 38.2972 73.0352 39.2032 73.0352H52.4376C53.3437 73.0352 54.0782 72.2978 54.0782 71.3881Z" fill="white"/>
<path d="M65.5625 46.6822H78.7969C79.7029 46.6822 80.4375 45.9447 80.4375 45.0351C80.4375 44.1255 79.7029 43.3881 78.7969 43.3881H65.5625C64.6564 43.3881 63.9219 44.1255 63.9219 45.0351C63.9219 45.9447 64.6564 46.6822 65.5625 46.6822Z" fill="white"/>
<defs>
<linearGradient id="paint0_linear" x1="60" y1="0" x2="60" y2="120" gradientUnits="userSpaceOnUse">
<stop offset="0.109375" stop-color="#EC2828"/>
<stop offset="0.880208" stop-color="#F52F2F"/>
</linearGradient>
</defs>
</svg>
