<svg width="100" height="100" viewBox="0 0 100 100" fill="none" xmlns="http://www.w3.org/2000/svg">
<circle cx="50" cy="50" r="50" fill="#D91D1D"/>
<circle cx="50" cy="50" r="50" fill="url(#paint0_linear)"/>
<g clip-path="url(#clip0)">
<path d="M67.7825 51.6913H63.9156C64.3098 52.7704 64.5251 53.9349 64.5251 55.1487V69.763C64.5251 70.269 64.437 70.7548 64.2768 71.2065H70.6695C73.0575 71.2065 75.0001 69.2638 75.0001 66.8759V58.909C75.0002 54.9292 71.7623 51.6913 67.7825 51.6913Z" fill="white"/>
<path d="M35.4751 55.1488C35.4751 53.935 35.6904 52.7705 36.0846 51.6914H32.2178C28.2379 51.6914 25 54.9293 25 58.9092V66.8761C25 69.264 26.9427 71.2068 29.3307 71.2068H35.7235C35.5632 70.7548 35.4751 70.2692 35.4751 69.7631V55.1488Z" fill="white"/>
<path d="M54.4198 47.9315H45.5797C41.5998 47.9315 38.3619 51.1694 38.3619 55.1493V69.7636C38.3619 70.5608 39.0082 71.2072 39.8055 71.2072H60.194C60.9913 71.2072 61.6375 70.5609 61.6375 69.7636V55.1493C61.6375 51.1694 58.3996 47.9315 54.4198 47.9315Z" fill="white"/>
<path d="M50.0001 28.7928C45.2138 28.7928 41.3198 32.6868 41.3198 37.4732C41.3198 40.7198 43.1117 43.5553 45.758 45.044C47.0132 45.75 48.4603 46.1535 50.0001 46.1535C51.5399 46.1535 52.987 45.75 54.2422 45.044C56.8886 43.5553 58.6804 40.7197 58.6804 37.4732C58.6804 32.6869 54.7864 28.7928 50.0001 28.7928Z" fill="white"/>
<path d="M34.7574 36.8838C31.1778 36.8838 28.2657 39.7959 28.2657 43.3755C28.2657 46.9551 31.1778 49.8672 34.7574 49.8672C35.6654 49.8672 36.5301 49.6791 37.3155 49.341C38.6735 48.7564 39.7932 47.7214 40.4861 46.425C40.9725 45.5152 41.2491 44.4772 41.2491 43.3755C41.2491 39.796 38.337 36.8838 34.7574 36.8838Z" fill="white"/>
<path d="M65.2426 36.8838C61.663 36.8838 58.7509 39.7959 58.7509 43.3755C58.7509 44.4773 59.0276 45.5153 59.5139 46.425C60.2068 47.7215 61.3265 48.7565 62.6845 49.341C63.47 49.6791 64.3346 49.8672 65.2426 49.8672C68.8222 49.8672 71.7343 46.9551 71.7343 43.3755C71.7343 39.7959 68.8222 36.8838 65.2426 36.8838Z" fill="white"/>
</g>
<defs>
<linearGradient id="paint0_linear" x1="50" y1="0" x2="50" y2="100" gradientUnits="userSpaceOnUse">
<stop offset="0.109375" stop-color="#EC2828"/>
<stop offset="0.880208" stop-color="#F52F2F"/>
</linearGradient>
<clipPath id="clip0">
<rect width="50" height="50" fill="white" transform="translate(25 25)"/>
</clipPath>
</defs>
</svg>
