<svg width="26" height="26" viewBox="0 0 26 26" fill="none" xmlns="http://www.w3.org/2000/svg">
<path d="M5.09752 20.0944C1.59984 17.0507 0 13 0 13C0 13 3.99959 2.86197 12.9974 2.86197C14.2992 2.86197 15.4965 3.00582 16.5944 3.43739L15.7944 4.59581C14.8952 4.45195 13.9959 4.3081 12.9973 4.3081C4.99813 4.3081 1.19721 13 1.19721 13C1.19721 13 2.69771 16.4752 5.79805 19.0798L5.09752 20.0944ZM8.99777 13C8.99777 13.4316 8.99777 13.8707 9.09711 14.3023L9.99636 13C9.99636 11.8416 10.2944 10.827 10.8956 9.95632C11.4969 9.08561 12.2968 8.65405 12.9974 8.65405L13.8967 7.35178C13.5986 7.20792 13.2954 7.20792 12.9974 7.20792C10.7963 7.20792 8.99777 9.81246 8.99777 13ZM20.8972 5.90565L20.1967 6.92021C23.297 9.52475 24.7975 13 24.7975 13C24.7975 13 20.9965 21.6919 12.9974 21.6919C11.9988 21.6919 11.0995 21.5481 10.2003 21.4042L9.40034 22.5626C10.4983 22.9942 11.7008 23.1381 13.0026 23.1381C22.0004 23.1381 26 13.0001 26 13.0001C26 13.0001 24.3949 8.94933 20.8972 5.90565ZM20.9861 0L4.0205 24.569L5.00864 26L21.9794 1.42341L20.9861 0ZM15.0992 16.0438C14.4979 16.9145 13.7973 17.346 12.9974 17.346L12.0981 18.6482C12.3961 18.7921 12.6994 18.7921 12.9974 18.7921C15.1984 18.7921 16.997 16.1875 16.997 13C16.997 12.5684 16.997 12.1293 16.8976 11.6977L15.9984 13C15.9984 14.1584 15.6951 15.1731 15.0992 16.0438Z" fill="black"/>
</svg>
