<svg width="26" height="25" viewBox="0 0 26 25" fill="none" xmlns="http://www.w3.org/2000/svg">
<path d="M13 14.2857C13.5523 14.2857 14 13.4862 14 12.4999C14 11.5137 13.5523 10.7142 13 10.7142C12.4477 10.7142 12 11.5137 12 12.4999C12 13.4862 12.4477 14.2857 13 14.2857Z" fill="black"/>
<path d="M13 5.35718C10.8 5.35718 9 8.57146 9 12.5C9 16.4286 10.8 19.6429 13 19.6429C15.2 19.6429 17 16.4286 17 12.5C17 8.57146 15.2 5.35718 13 5.35718ZM13 17.8572C11.3 17.8572 10 15.5358 10 12.5C10 9.46427 11.3 7.14289 13 7.14289C14.7 7.14289 16 9.46427 16 12.5C16 15.5358 14.7 17.8572 13 17.8572Z" fill="black"/>
<path d="M13 0C4 0 0 12.5 0 12.5C0 12.5 4 25 13 25C22 25 26 12.5 26 12.5C26 12.5 22 0 13 0ZM13 23.2143C5 23.2143 1.2 12.5 1.2 12.5C1.2 12.5 5 1.78571 13 1.78571C21 1.78571 24.8 12.5 24.8 12.5C24.8 12.5 21 23.2143 13 23.2143Z" fill="black"/>
</svg>
